<?xml version="1.0" standalone="no"?>
<!DOCTYPE svg PUBLIC "-//W3C//DTD SVG 20010904//EN"
 "http://www.w3.org/TR/2001/REC-SVG-20010904/DTD/svg10.dtd">
<svg version="1.0" xmlns="http://www.w3.org/2000/svg"
 width="262.000000pt" height="262.000000pt" viewBox="0 0 262.000000 262.000000"
 preserveAspectRatio="xMidYMid meet">
<metadata>
Created by potrace 1.14, written by Peter Selinger 2001-2017
</metadata>
<g transform="translate(0.000000,262.000000) scale(0.100000,-0.100000)"
fill="#000000" stroke="none">
<path d="M2221 2164 c-23 -26 -61 -88 -85 -139 -48 -100 -102 -171 -216 -282
-105 -103 -113 -107 -256 -113 -118 -6 -122 -7 -157 -37 -19 -17 -53 -41 -76
-54 -23 -12 -41 -26 -41 -30 0 -5 -27 -37 -60 -72 -64 -69 -68 -78 -46 -96 11
-10 21 -9 44 3 29 15 30 15 25 -4 -3 -11 -9 -23 -14 -26 -5 -3 -9 -14 -9 -26
0 -17 5 -20 33 -16 29 3 33 1 29 -14 -7 -26 23 -32 57 -12 17 10 31 21 31 25
0 6 41 62 71 97 20 24 23 2 3 -26 -11 -15 -28 -46 -38 -69 -15 -35 -17 -45 -6
-58 28 -34 76 -4 146 91 17 22 38 33 93 47 39 10 73 23 76 28 4 5 17 9 31 9
44 0 83 28 106 77 28 57 43 66 252 150 168 67 269 118 299 151 18 20 17 23
-16 95 -52 113 -114 206 -227 340 -4 5 -26 -13 -49 -39z"/>
<path d="M1020 1234 c-52 -19 -106 -43 -120 -54 -23 -19 -82 -49 -122 -63 -10
-3 -40 -50 -67 -104 -46 -92 -121 -193 -142 -193 -6 0 -33 -18 -62 -40 -29
-21 -71 -47 -92 -56 -22 -9 -65 -31 -95 -49 -30 -18 -67 -36 -83 -40 -15 -4
-29 -11 -32 -15 -6 -10 96 -148 163 -219 60 -64 57 -65 141 49 89 121 169 199
236 231 33 16 67 29 75 29 25 0 84 42 126 89 38 43 121 91 157 91 31 0 77 30
77 49 0 51 -88 67 -169 31 -54 -25 -64 -25 -85 -1 -16 18 -16 20 6 44 13 14
29 31 35 39 42 44 64 56 122 64 19 2 40 9 48 15 15 13 18 59 3 59 -6 0 -5 10
2 25 8 19 8 28 -2 40 -15 18 -5 20 -120 -21z"/>
</g>
</svg>
